EMG_gait_6.mot
nRows=17
nColumns=25

name EMG_gait_6.mot
datacolumns 25
datarows 17
range 3.4580000000 3.4740000000
endheader
Time	HamL_r	TA_r	PerL_r	GL_r	HamM_r	Sol_r	VL_r	VM_r	PerB_l	TA_l	PerL_l	GL_l	GM_l	Sol_l	VL_l	VM_l	AddL_l	RF_l	TFL_l	GluMed_l	HamL_l	HamM_l	GluMed_r	RF_r
        3.4580000000	        0.7628277979	        0.4723112831	        0.7047129681	        0.4684676888	        0.3542832635	        0.1375512285	        0.0607936978	        0.3782998681	        0.2868558423	        0.0123434336	        0.1921644542	        0.0784603004	        0.0890527871	        0.4535967794	        0.4909641551	        0.6491433156	        0.2701042277	        0.4191291866	        0.2163164670	        0.1896340400	        0.1247174983	        0.0779603150	        0.0426524284	        0.1806353549	
        3.4590000000	        0.7763848036	        0.4677630567	        0.7042564184	        0.4666013994	        0.3555141146	        0.1382239064	        0.0602413031	        0.3886258402	        0.2924870940	        0.0141811994	        0.1945572755	        0.0787098639	        0.0897179027	        0.4598315378	        0.4876770411	        0.6424290905	        0.2631805640	        0.4101878486	        0.2160535140	        0.1876609307	        0.1221277726	        0.0772218288	        0.0441071975	        0.1756723626	
        3.4600000000	        0.7895351885	        0.4631882409	        0.7035564454	        0.4646964844	        0.3572217989	        0.1388709735	        0.0596739836	        0.3993848782	        0.2980921791	        0.0160982224	        0.1969474403	        0.0789583317	        0.0903874661	        0.4658297305	        0.4841604481	        0.6354959032	        0.2564909781	        0.4013146211	        0.2159363931	        0.1858662012	        0.1195569880	        0.0764877119	        0.0455938187	        0.1707069983	
        3.4610000000	        0.8022386498	        0.4586106987	        0.7026258535	        0.4627692695	        0.3593933375	        0.1394913774	        0.0590931079	        0.4105533746	        0.3036675553	        0.0180820876	        0.1993302439	        0.0792063738	        0.0910634788	        0.4715851391	        0.4804102522	        0.6283383967	        0.2500386500	        0.3925203969	        0.2159613370	        0.1842440457	        0.1170103961	        0.0757592098	        0.0471108197	        0.1657526152	
        3.4620000000	        0.8144559275	        0.4540543731	        0.7014778841	        0.4608361407	        0.3620136884	        0.1400840784	        0.0585000451	        0.4221068239	        0.3092096818	        0.0201208612	        0.2017016354	        0.0794547121	        0.0917480119	        0.4770922120	        0.4764234436	        0.6209521336	        0.2438262955	        0.3838156261	        0.2161244294	        0.1827880930	        0.1144932349	        0.0750375372	        0.0486565854	        0.1608221396	
        3.4630000000	        0.8261489618	        0.4495431771	        0.7001260972	        0.4589135096	        0.3650658251	        0.1406480531	        0.0578961605	        0.4340199038	        0.3147150123	        0.0222031096	        0.2040582154	        0.0797041153	        0.0924431945	        0.4823460706	        0.4721981222	        0.6133336490	        0.2378561577	        0.3752102840	        0.2164216100	        0.1814914399	        0.1120107183	        0.0743238735	        0.0502293556	        0.1559280262	
        3.4640000000	        0.8372810467	        0.4451008842	        0.6985842594	        0.4570177757	        0.3685308206	        0.1411822977	        0.0572828110	        0.4462665566	        0.3201799876	        0.0243179170	        0.2063972309	        0.0799553923	        0.0931512037	        0.4873425134	        0.4677334864	        0.6054804968	        0.2321300004	        0.3667138396	        0.2168486788	        0.1803466884	        0.1095680254	        0.0736193592	        0.0518272215	        0.1510822195	
        3.4650000000	        0.8478169803	        0.4407510190	        0.6968662360	        0.4551652842	        0.3723879366	        0.1416858319	        0.0566613409	        0.4588200677	        0.3256010304	        0.0264548997	        0.2087165668	        0.0802093861	        0.0938742545	        0.4920780171	        0.4630298137	        0.5973912892	        0.2266491047	        0.3583352278	        0.2174013005	        0.1793459848	        0.1071702911	        0.0729250923	        0.0534481238	        0.1462961172	
        3.4660000000	        0.8577232097	        0.4365167474	        0.6949858914	        0.4533722809	        0.3766147171	        0.1421577021	        0.0560330773	        0.4716531437	        0.3309745385	        0.0286042170	        0.2110147345	        0.0804669673	        0.0946145897	        0.4965497348	        0.4580884359	        0.5890657299	        0.2214142662	        0.3500828229	        0.2180750086	        0.1784810617	        0.1048225961	        0.0722421250	        0.0550898509	        0.1415805393	
        3.4670000000	        0.8669679698	        0.4324207668	        0.6929569961	        0.4516548623	        0.3811870849	        0.1425969853	        0.0553993268	        0.4847379895	        0.3362968800	        0.0307565809	        0.2132908566	        0.0807290277	        0.0953744712	        0.5007554926	        0.4529117081	        0.5805046401	        0.2164257957	        0.3419644154	        0.2188652092	        0.1777432817	        0.1025299576	        0.0715714605	        0.0567500388	        0.1369456999	
        3.4680000000	        0.8755214160	        0.4284851983	        0.6907931414	        0.4500289224	        0.3860794409	        0.1430027920	        0.0547613711	        0.4980463856	        0.3415643881	        0.0329032616	        0.2155446494	        0.0809964737	        0.0961561706	        0.5046937831	        0.4475029729	        0.5717099785	        0.2116835210	        0.3339871916	        0.2197671854	        0.1771236841	        0.1002973204	        0.0709140506	        0.0584261707	        0.1324011845	
        3.4690000000	        0.8833557481	        0.4247314796	        0.6885076637	        0.4485100968	        0.3912647663	        0.1433742702	        0.0541204638	        0.5115497650	        0.3467733573	        0.0350360918	        0.2177764016	        0.0812702191	        0.0969619621	        0.5083637565	        0.4418665202	        0.5626848535	        0.2071867915	        0.3261577156	        0.2207761007	        0.1766130321	        0.0981295472	        0.0702707926	        0.0601155780	        0.1279559299	
        3.4700000000	        0.8904453273	        0.4211802601	        0.6861135772	        0.4471137032	        0.3967147255	        0.1437106082	        0.0534778272	        0.5252192912	        0.3519200388	        0.0371474677	        0.2199869503	        0.0815511784	        0.0977941141	        0.5117652097	        0.4360075449	        0.5534335300	        0.2029344837	        0.3184819148	        0.2218870038	        0.1762018624	        0.0960314098	        0.0696425277	        0.0618154428	        0.1236182093	
        3.4710000000	        0.8967667827	        0.4178513005	        0.6836235155	        0.4458546805	        0.4023997728	        0.1440110380	        0.0528346492	        0.5390259356	        0.3570006381	        0.0392303484	        0.2221776535	        0.0818402595	        0.0986548830	        0.5148985724	        0.4299321003	        0.5439614281	        0.1989250097	        0.3109650683	        0.2230948330	        0.1758805356	        0.0940075806	        0.0690300384	        0.0635228005	        0.1193956206	
        3.4720000000	        0.9022991103	        0.4147633749	        0.6810496839	        0.4447475255	        0.4082892609	        0.1442748382	        0.0521920804	        0.5529405566	        0.3620113119	        0.0412782520	        0.2243503609	        0.0821383565	        0.0995465071	        0.5177648910	        0.4236470509	        0.5342751151	        0.1951563260	        0.3036117981	        0.2243944211	        0.1756392872	        0.0920626232	        0.0684340471	        0.0652345442	        0.1152950787	
        3.4730000000	        0.9070237626	        0.4119341782	        0.6784038199	        0.4438062297	        0.4143515523	        0.1445013369	        0.0515512319	        0.5669339778	        0.3669481665	        0.0432852511	        0.2265073809	        0.0824463426	        0.1004712007	        0.5203658102	        0.4171600229	        0.5243822910	        0.1916259447	        0.2964260640	        0.2257805004	        0.1754682797	        0.0902009842	        0.0678552148	        0.0669474294	        0.1113228115	
        3.4740000000	        0.9109247290	        0.4093802387	        0.6756971637	        0.4430442152	        0.4205541358	        0.1446899148	        0.0509131728	        0.5809770661	        0.3718072572	        0.0452459647	        0.2286514458	        0.0827650626	        0.1014311498	        0.5227035520	        0.4104793548	        0.5142917657	        0.1883309453	        0.2894111615	        0.2272477089	        0.1753576537	        0.0884269841	        0.0672941392	        0.0686580812	        0.1074843591	
